<?xml version="1.0" standalone="no"?><!DOCTYPE svg PUBLIC "-//W3C//DTD SVG 1.1//EN" "http://www.w3.org/Graphics/SVG/1.1/DTD/svg11.dtd"><svg t="1545020145119" class="icon" style="" viewBox="0 0 1024 1024" version="1.1" xmlns="http://www.w3.org/2000/svg" p-id="18643" xmlns:xlink="http://www.w3.org/1999/xlink" width="200" height="200"><defs><style type="text/css"></style></defs><path d="M1004.289588 375.158379c0-43.180452-34.852786-78.19185-77.858252-78.19185l-60.559261 0c25.301246-24.856108 41.095977-59.408041 41.095977-97.741092 0-75.597769-60.999282-136.836505-136.252197-136.836505-76.56377 0-126.502136 76.321246-156.620084 148.366096-16.135492-7.17747-35.895535-11.530614-57.490366-11.530614-21.592784 0-41.34157 4.353145-57.490366 11.530614-30.119995-72.04485-80.055291-148.366096-156.620084-148.366096-63.781652 0-116.898407 44.172035-131.745557 103.619986 12.402471 2.557242 24.977881 5.956665 37.686321 10.041704 10.271948-42.87653 48.553833-74.948993 94.374414-74.948993 56.056714 0 97.797373 67.198471 124.372635 133.670395-4.238534 5.916756-6.471388 12.446473-7.233752 19.203364 2.092661-0.304945 4.107551-0.687662 5.798053-1.220804-2.509147 0.763386-4.199649 1.86958-6.082532 2.902096-0.049119 0.76134-0.379647 1.450025-0.379647 2.213411 0 12.600993 7.098675 24.052812 18.411325 33.598212-0.172939 0.038886-0.268106 0.11461-0.441045 0.190335-25.308409 7.981788-74.348312 6.912433-164.267251-43.065841-199.959148-111.141286-288.176328-4.314259-289.125957-3.131317-6.777357 8.363482-5.503341 20.695345 2.841721 27.490098 8.362458 6.7968 20.61348 5.535063 27.380604-2.864234 0.740874-0.916882 68.267826-82.737376 240.055354 12.71458 61.814858 34.361599 114.296139 51.618635 156.684552 51.618635 8.553817 0 16.557094-0.952698 24.293289-2.364861 0.63752 1.295506 1.502213 2.708692 2.083451 4.006244l59.941184 0 0 156.387793L147.852908 492.449735 147.852908 375.158379c0-21.61018 17.428951-39.095413 38.927591-39.095413l129.23641 0c-13.180184-6.147-26.64894-12.903891-40.563858-20.656459-13.009292-7.214309-25.602098-13.208836-37.938054-18.441001l-50.735521 0c-42.996257 0-77.856205 35.011398-77.856205 78.19185l0 156.388816 58.392922 0 0 351.868953c0 43.182498 34.860972 78.192873 77.856205 78.192873l622.86397 0c43.005466 0 77.858252-35.010375 77.858252-78.192873L945.894619 531.699668l58.59656 0L1004.289588 375.158379zM537.141098 922.514631 245.17342 922.514631c-21.497617 0-38.928614-17.526165-38.928614-39.09746L206.244806 531.548218l330.896292 0L537.141098 922.514631zM653.927965 257.870092c0-8.207939-2.840698-15.996322-7.897877-23.097044 26.584472-66.471924 68.316945-133.670395 124.371612-133.670395 53.66013 0 97.320513 43.831274 97.320513 97.743138 0 53.870932-43.660382 97.741092-97.320513 97.741092L629.206934 296.586882C644.405077 286.238187 653.927965 272.762267 653.927965 257.870092zM534.365892 275.931446c-1.854231-3.361561-4.391007-6.376221-8.067746-8.208962-6.090718-3.016707-12.830213-2.252297-18.284435 0.955768-6.16849-3.093455-9.800203-6.798846-9.800203-10.807137 0-10.80509 26.143427-19.548218 58.392922-19.548218 32.248472 0 58.393945 8.743128 58.393945 19.548218 0 10.807137-26.146497 19.549242-58.393945 19.549242C548.726971 277.419334 541.229207 276.883121 534.365892 275.931446zM906.968052 883.417171c0 21.571295-17.433044 39.09746-38.930661 39.09746L576.070736 922.514631 576.070736 531.548218l330.897316 0L906.968052 883.417171zM965.360973 492.451782 576.070736 492.451782 576.070736 336.062965l350.3606 0c21.49864 0 38.929638 17.485233 38.929638 39.095413L965.360973 492.451782z" p-id="18644" fill="#d81e06"></path></svg>