<?xml version="1.0" standalone="no"?><!DOCTYPE svg PUBLIC "-//W3C//DTD SVG 1.1//EN" "http://www.w3.org/Graphics/SVG/1.1/DTD/svg11.dtd"><svg t="1545019192347" class="icon" style="" viewBox="0 0 1025 1024" version="1.1" xmlns="http://www.w3.org/2000/svg" p-id="4722" xmlns:xlink="http://www.w3.org/1999/xlink" width="200.1953125" height="200"><defs><style type="text/css"></style></defs><path d="M512.006807 269.04702 146.80149 570.120109c0 0.424908-0.106783 1.050035-0.32035 1.902076-0.209117 0.845367-0.32035 1.459371-0.32035 1.895402l0 304.868344c0 11.007571 4.024393 20.546873 12.070954 28.580086 8.044337 8.037663 17.57029 12.082077 28.580086 12.082077l243.888446 0L430.700277 675.546302l162.615285 0 0 243.910692 243.886221 0c11.007571 0 20.546873-4.035516 28.580086-12.090976 8.046561-8.024315 12.084302-17.57029 12.084302-28.580086L877.866172 573.917588c0-1.690734-0.231364-2.967684-0.640699-3.797479L512.006807 269.04702z" p-id="4723" fill="#d81e06"></path><path d="M1016.942429 501.520783 877.852824 385.923489 877.852824 126.780613c0-5.924245-1.904301-10.796229-5.726251-14.609281-3.790805-3.808602-8.662789-5.712903-14.600382-5.712903l-121.946448 0c-5.930919 0-10.800679 1.904301-14.615954 5.712903-3.806377 3.813051-5.708453 8.687261-5.708453 14.609281l0 123.852973-154.973611-129.574775c-13.534774-11.009796-29.627897-16.513581-48.26157-16.513581-18.631449 0-34.722347 5.503786-48.270469 16.513581L7.062287 501.520783c-4.23351 3.381469-6.553821 7.933104-6.985403 13.650456-0.429358 5.712903 1.050035 10.702794 4.442627 14.93408l39.37854 47.002418c3.392592 3.808602 7.832995 6.137811 13.339005 6.989852 5.083327 0.427133 10.166653-1.058934 15.24998-4.444852L512.006807 213.159347l439.52422 366.491165c3.394817 2.954336 7.832995 4.429279 13.339005 4.429279l1.90875 0c5.497112-0.836469 9.928616-3.18125 13.339005-6.980954l39.38299-46.995744c3.385918-4.240184 4.86976-9.221177 4.429279-14.940753C1023.49625 509.460561 1021.167041 504.908926 1016.942429 501.520783z" p-id="4724" fill="#d81e06"></path></svg>