<?xml version="1.0" standalone="no"?><!DOCTYPE svg PUBLIC "-//W3C//DTD SVG 1.1//EN" "http://www.w3.org/Graphics/SVG/1.1/DTD/svg11.dtd"><svg t="1545019767618" class="icon" style="" viewBox="0 0 1024 1024" version="1.1" xmlns="http://www.w3.org/2000/svg" p-id="13589" xmlns:xlink="http://www.w3.org/1999/xlink" width="200" height="200"><defs><style type="text/css"></style></defs><path d="M76.544839 334.265016l104.109126 0 0 235.420801L76.544839 569.685817 76.544839 334.265016 76.544839 334.265016zM76.544839 334.265016" p-id="13590" fill="#d81e06"></path><path d="M241.232668 302.886355c0 0 362.382401-13.242606 552.464597-239.596913 0 0 162.584935-38.872333 150.173255 387.414517 0 0 17.306154 293.547663-148.642388 334.899466 0 0-124.595716-161.594375-553.881876-181.183526L241.232668 302.886355 241.232668 302.886355zM241.232668 302.886355" p-id="13591" fill="#d81e06"></path><path d="M308.701293 675.605172c0 0 15.233959 138.207735 127.32385 282.942117 0 0 97.401354 4.354168 112.090914-35.914978 0 0 10.337439-26.66122-20.678972-60.939931-9.92607-15.759939-98.204649-90.323145-112.629173-186.088232L308.701293 675.604148 308.701293 675.605172zM308.701293 675.605172" p-id="13592" fill="#d81e06"></path></svg>