<?xml version="1.0" standalone="no"?><!DOCTYPE svg PUBLIC "-//W3C//DTD SVG 1.1//EN" "http://www.w3.org/Graphics/SVG/1.1/DTD/svg11.dtd"><svg t="1545019371010" class="icon" style="" viewBox="0 0 1177 1024" version="1.1" xmlns="http://www.w3.org/2000/svg" p-id="9155" xmlns:xlink="http://www.w3.org/1999/xlink" width="229.8828125" height="200"><defs><style type="text/css"></style></defs><path d="M1033.778956 696.302592c-108.79728-41.752556-102.243844-25.010575-102.243844-102.39744 0-49.99555 24.447389-31.640809 39.960601-126.870428 6.041449-37.503062 11.033324-12.492488 23.909802-72.599785 6.835029-31.384815-4.710282-33.791155-3.148721-48.689983 1.305567-14.873228 2.636734-28.440889 5.273468-59.032124 3.148721-38.296643-30.514437-138.313342-150.882628-138.313342-120.39379 0-154.031349 100.0167-150.882628 138.313342 2.355141 30.847229 3.942301 44.158896 5.247869 59.032124 1.331167 14.898828-9.98375 17.305167-3.148722 48.689983 12.876478 60.107297 17.868353 34.81513 23.935402 72.599785 15.487613 95.229619 39.679008 77.130872 39.679008 126.870428 0 35.634309 8.140596 50.533137-39.167021 73.137372a2039.245019 2039.245019 0 0 1 50.737932 18.892328c142.972426 55.038624 139.567711 108.515687 143.254018 133.782255 2.611135 17.279568 3.942301 155.055324 4.454289 204.257294H1177.570561s0-214.113047-3.942302-239.098023c-2.892728-19.711507-28.927277-45.746056-139.849303-88.573786z" p-id="9156" fill="#d81e06"></path><path d="M854.250644 1023.974401s0-37.503062-0.511987-80.842779c-0.511987-49.483563-1.843154-106.39094-4.479888-123.414515-3.942301-25.266568-37.579861-59.057724-180.296293-114.096348-19.711507-7.449414-36.274293-13.567661-50.737932-18.892327-87.549811-31.384815-81.226769-41.752556-81.226769-127.664009 0-64.638384 31.538412-22.604235 51.531512-145.225169 7.884603-48.38279 14.182045-16.229994 30.744831-93.61686 8.959776-40.446989-6.041449-43.621309-4.198295-63.025624 1.843154-19.429914 3.686308-36.709482 6.835029-76.337291 4.198295-49.20197-39.167021-178.453139-194.78553-178.453139-155.59291 0-198.702232 128.969576-194.759931 178.427539 3.148721 39.653409 4.991875 56.932977 7.091023 76.362891 1.843154 19.404315-13.132472 22.322642-4.198295 63.025624 16.81878 77.386865 23.116222 45.20847 31.000825 93.61686 19.967501 122.620934 51.275518 80.586785 51.275518 145.225169 0 99.9911 8.652584 92.567286-131.964701 146.556336-142.716432 55.038624-176.379591 88.829779-180.321892 114.096348C0 851.895503 0 1023.974401 0 1023.974401H854.276243z" p-id="9157" fill="#d81e06"></path></svg>