<?xml version="1.0" standalone="no"?><!DOCTYPE svg PUBLIC "-//W3C//DTD SVG 1.1//EN" "http://www.w3.org/Graphics/SVG/1.1/DTD/svg11.dtd"><svg t="1545019015145" class="icon" style="" viewBox="0 0 1024 1024" version="1.1" xmlns="http://www.w3.org/2000/svg" p-id="3929" xmlns:xlink="http://www.w3.org/1999/xlink" width="200" height="200"><defs><style type="text/css"></style></defs><path d="M160.706863 175.946062a13.820162 13.820162 0 0 0-10.982128 0.116001 14.842174 14.842174 0 0 0-8.634102 9.660113 18.292214 18.292214 0 0 1-29.786349 7.982094 14.926175 14.926175 0 0 0-10.30412-4.178049 13.942163 13.942163 0 0 0-2.000024 0.134002 13.796162 13.796162 0 0 0-9.572112 5.392063c-3.580042 5.660066 0.108001 19.312226 12.492146 32.358379a105.475236 105.475236 0 0 0 40.438474 22.580265 105.601238 105.601238 0 0 0 23.606277-39.260461c4.312051-17.998211 0.678008-31.668371-5.258062-34.784407z m490.719751 587.908889a13.872163 13.872163 0 0 0-10.990129 0.098002 14.866174 14.866174 0 0 0-8.634101 9.660113 18.292214 18.292214 0 0 1-29.786349 7.982093 14.926175 14.926175 0 0 0-10.304121-4.178049 13.942163 13.942163 0 0 0-2.000023 0.134002 13.796162 13.796162 0 0 0-9.572112 5.392063c-3.580042 5.660066 0.108001 19.322226 12.492146 32.366379a105.501236 105.501236 0 0 0 40.428474 22.580265 105.639238 105.639238 0 0 0 23.616276-39.26846c4.312051-17.998211 0.688008-31.658371-5.250061-34.766408z" p-id="3930" fill="#d81e06"></path><path d="M757.677859 864.928136L544.931366 70.940831l-0.054001-0.198002-14.372168-53.636629a18.274214 18.274214 0 0 0-22.394263-12.938151L13.553139 136.687602A18.300214 18.300214 0 0 0 0.624987 159.079864l227.170662 847.821936a18.266214 18.266214 0 0 0 22.384263 12.928151l494.567796-132.511553a18.306215 18.306215 0 0 0 12.930151-22.390262zM201.635343 218.768564a158.273855 158.273855 0 0 1-40.374473 64.85876 18.268214 18.268214 0 0 1-18.474217 4.946058 158.329855 158.329855 0 0 1-67.742794-36.366426c-23.598277-24.830291-30.214354-55.098646-16.500193-76.7329a50.148588 50.148588 0 0 1 35.634418-22.070258 51.008598 51.008598 0 0 1 22.848267 2.080024 51.050598 51.050598 0 0 1 18.75022-13.224155 50.092587 50.092587 0 0 1 41.884491 1.286015c22.698266 11.884139 32.098376 41.410485 23.974281 75.222882z m327.539838 315.111692c-11.838139 56.242659-64.080751 117.939382-94.163103 149.671754a18.268214 18.268214 0 0 1-18.474217 4.946058c-41.910491-12.438146-118.009383-39.750466-156.733836-82.920971-50.580593-53.260624-65.830771-115.761357-38.510452-158.867862a97.673145 97.673145 0 0 1 69.536815-42.6605 100.015172 100.015172 0 0 1 62.590734 11.94614 99.731169 99.731169 0 0 1 48.242565-41.644488 97.735145 97.735145 0 0 1 81.536956 2.178025c45.22453 23.662277 63.268741 85.431001 45.974538 157.351844z m163.171912 272.779197a158.273855 158.273855 0 0 1-40.374473 64.85876 18.250214 18.250214 0 0 1-18.464216 4.946058 158.197854 158.197854 0 0 1-67.742794-36.348426c-23.598277-24.848291-30.214354-55.126646-16.508193-76.750899a50.148588 50.148588 0 0 1 35.634417-22.070259 51.386602 51.386602 0 0 1 22.848268 2.090025 50.974597 50.974597 0 0 1 18.75022-13.232156 49.920585 49.920585 0 0 1 41.892491 1.304016c22.678266 11.864139 32.088376 41.380485 23.96428 75.202881z m73.204858-450.861283c23.544276-24.866291 32.714383-53.214624 22.616265-69.294813a34.906409 34.906409 0 0 0-24.652289-14.500169 36.580429 36.580429 0 0 0-30.348355 9.848115 18.292214 18.292214 0 0 1-29.786349-7.964093 36.588429 36.588429 0 0 0-21.384251-23.678278 34.738407 34.738407 0 0 0-28.554334 0.330004 35.740419 35.740419 0 0 0-16.116189 23.948281l25.692301 95.881123a301.817537 301.817537 0 0 0 22.844267 28.512334 196.188299 196.188299 0 0 0 79.688934-43.082504zM623.594288 104.553225a13.68616 13.68616 0 0 0-9.508112-5.286062 14.620171 14.620171 0 0 0-12.142142 4.054048 18.136213 18.136213 0 0 1-9.276109 4.484052l9.790115 36.534428a49.740583 49.740583 0 0 0 8.4961-6.994081c13.016153-13.818162 16.18619-27.158318 12.640148-32.792385z" p-id="3931" fill="#d81e06"></path><path d="M1021.536951 138.151619a17.94021 17.94021 0 0 0-10.982129-8.456099L566.65362 10.718126l11.104131 41.446485a51.614605 51.614605 0 0 1 18.312214 12.976152 50.734595 50.734595 0 0 1 22.724266-2.142025 50.130587 50.130587 0 0 1 35.724419 22.008258c13.62616 21.714254 7.026082 51.982609-16.750196 77.214905a97.407141 97.407141 0 0 1-25.454298 18.898222l12.158142 45.372531a60.848713 60.848713 0 0 1 12.030141-8.368098 71.060833 71.060833 0 0 1 59.402696-1.74002 72.440849 72.440849 0 0 1 32.018375 25.438298c32.45838-14.936175 70.956832-4.320051 91.171069 25.142294 19.62423 31.276367 9.142107 75.840889-26.660313 113.635332-26.732313 29.732348-78.54492 48.312566-107.027254 56.706665a17.780208 17.780208 0 0 1-4.27605 0.620007l111.875311 417.526893a54.848643 54.848643 0 0 1-38.778454 67.186787h-0.010001l-158.323855 42.420497 177.932085 47.614558a17.95421 17.95421 0 0 0 13.892163-1.75002 18.202213 18.202213 0 0 0 8.5261-11.152131L1023.350972 152.089782a18.140213 18.140213 0 0 0-1.814021-13.938163zM466.254444 408.940792a61.606722 61.606722 0 0 0-50.642594-0.776009 64.688758 64.688758 0 0 0-37.276436 41.232483 18.292214 18.292214 0 0 1-29.786349 7.982094 64.346754 64.346754 0 0 0-52.89262-17.0722 61.606722 61.606722 0 0 0-43.47451 25.992304c-17.492205 27.590323-3.304039 74.660875 34.490404 114.475342 22.894268 25.508299 69.626816 50.420591 129.493518 69.358813 42.366496-46.330543 70.374825-91.233069 77.340906-124.295457 12.944152-53.886631 1.69402-101.755192-27.252319-116.89737z" p-id="3932" fill="#d81e06"></path></svg>