<?xml version="1.0" standalone="no"?><!DOCTYPE svg PUBLIC "-//W3C//DTD SVG 1.1//EN" "http://www.w3.org/Graphics/SVG/1.1/DTD/svg11.dtd"><svg t="1545019984428" class="icon" style="" viewBox="0 0 1024 1024" version="1.1" xmlns="http://www.w3.org/2000/svg" p-id="15855" xmlns:xlink="http://www.w3.org/1999/xlink" width="200" height="200"><defs><style type="text/css"></style></defs><path d="M114.297674 435.209056c-1.87572 0-3.78214-0.214894-5.688559-0.676405-12.665461-3.136433-20.383236-15.925714-17.277502-28.590152 6.91755-28.098965 16.324804-50.726312 30.466895-73.322959 6.885827-11.035334 21.519106-14.387685 32.525788-7.500834 11.067057 6.91755 14.417361 21.458731 7.501858 32.526811-11.528568 18.445094-18.875906 36.245506-24.62484 59.609633C134.526391 428.016237 124.904243 435.209056 114.297674 435.209056z" p-id="15856" fill="#d81e06"></path><path d="M141.84303 619.206674c-8.085142 0-15.956414-4.15053-20.382213-11.620665-12.942777-21.980617-23.857361-48.419779-29.974685-72.706929 0-0.062422-0.030699-0.092098-0.030699-0.152473l0 0c-0.030699-0.063445-0.030699-0.12382-0.061398-0.185218l0 0c0-0.062422-0.030699-0.12382-0.030699-0.184195 0-0.031722-0.030699-0.031722-0.030699-0.031722 0-0.029676 0-0.029676 0-0.029676 0-0.031722 0-0.031722 0-0.031722l0-0.029676c0 0-0.029676-0.062422-0.029676-0.12382-2.981914-12.695137 4.796236-25.700335 17.492396-28.712949 12.911054-2.952238 25.331945 4.611018 28.313859 17.276479 4.979408 19.983123 14.326287 42.763966 25.055652 60.932768 6.609535 11.221576 2.858094 25.701358-8.362458 32.341592C150.051993 618.160855 145.901463 619.206674 141.84303 619.206674z" p-id="15857" fill="#d81e06"></path><path d="M111.069143 552.003086 39.499108 552.003086c-18.568914 0-33.694403-15.556301-33.694403-34.7085L5.804704 422.697091c0-19.153222 15.125489-34.7085 33.694403-34.7085l70.892607 0c13.034874 0 23.610744 10.574846 23.610744 23.609721 0 13.035898-10.57587 23.610744-23.610744 23.610744L53.027216 435.209056l0 69.571519 58.041928 0c13.035898 0 23.610744 10.57587 23.610744 23.610744S124.105041 552.003086 111.069143 552.003086z" p-id="15858" fill="#d81e06"></path><path d="M141.812331 345.131505" p-id="15859" fill="#d81e06"></path><path d="M141.812331 345.131505" p-id="15860" fill="#d81e06"></path><path d="M141.812331 345.131505" p-id="15861" fill="#d81e06"></path><path d="M349.266174 603.466178c-73.599252 0-133.4862-59.886949-133.4862-133.4862s59.885925-133.454478 133.4862-133.454478c73.598228 0 133.4862 59.856249 133.4862 133.454478S422.864402 603.466178 349.266174 603.466178zM349.266174 383.744941c-47.560202 0-86.264713 38.674834-86.264713 86.235037 0 47.559179 38.705534 86.264713 86.264713 86.264713 47.559179 0 86.264713-38.705534 86.264713-86.264713C435.530886 422.419775 396.825352 383.744941 349.266174 383.744941z" p-id="15862" fill="#d81e06"></path><path d="M224.417701 286.136879c-7.930623 0-15.648398-3.965312-20.136619-11.220552-6.824429-11.097756-3.382027-25.63996 7.717775-32.495088 22.657023-13.987572 45.898353-23.641443 73.198116-30.374798 12.727882-3.01159 25.455765 4.612041 28.590152 17.277502 3.105734 12.666484-4.611018 25.455765-17.277502 28.592198-22.688745 5.594415-41.10314 13.219069-59.733453 24.715915C232.933655 284.998963 228.630652 286.136879 224.417701 286.136879z" p-id="15863" fill="#d81e06"></path><path d="M290.885532 729.634716c-1.998517 0-4.027733-0.243547-6.055926-0.76748-25.362644-6.703679-50.603515-17.493419-72.891124-31.266098-11.097756-6.856152-14.541181-21.396309-7.716752-32.496112 6.857175-11.097756 21.428032-14.541181 32.495088-7.715729 18.139126 11.221576 39.504736 20.382213 60.163241 25.792433 12.605086 3.321652 20.136619 16.232706 16.815991 28.837792C310.898331 722.627115 301.337581 729.634716 290.885532 729.634716z" p-id="15864" fill="#d81e06"></path><path d="M407.646815 728.652342c-10.57587 0-20.22974-7.164167-22.87294-17.925255-3.167133-12.664438 4.549619-25.454742 17.216103-28.589129 22.811542-5.687536 41.287335-13.281491 59.857273-24.687262 11.067057-6.824429 25.63996-3.350304 32.464389 7.747451 6.825452 11.098779 3.351328 25.640983-7.746428 32.465412-22.565948 13.895475-45.837978 23.5166-73.200162 30.281677C411.459654 728.435401 409.553235 728.652342 407.646815 728.652342z" p-id="15865" fill="#d81e06"></path><path d="M557.794487 619.545388c-4.180206 0-8.42181-1.107217-12.266371-3.443425-11.127432-6.794753-14.660908-21.335934-7.868201-32.464389 9.868765-16.171308 17.432021-35.539424 23.765263-60.96449 3.134387-12.665461 15.95539-20.382213 28.620851-17.184381 12.636808 3.13541 20.352537 15.95539 17.186428 28.620851-7.532557 30.190603-16.817014 53.770648-29.236881 74.123184C573.536007 615.517655 565.758879 619.545388 557.794487 619.545388z" p-id="15866" fill="#d81e06"></path><path d="M584.295048 435.209056c-10.574846 0-20.196994-7.163143-22.871917-17.922185-5.811356-23.273053-13.189394-41.10314-24.74866-59.672054-6.885827-11.06808-3.505847-25.63996 7.561209-32.526811 11.06808-6.977925 25.671683-3.5038 32.526811 7.563256 14.112416 22.687722 23.51967 45.284369 30.466895 73.260537 3.166109 12.634762-4.549619 25.454742-17.217127 28.590152C588.107887 434.994162 586.200444 435.209056 584.295048 435.209056z" p-id="15867" fill="#d81e06"></path><path d="M471.96161 284.906865c-4.090155 0-8.207939-1.044796-11.989055-3.288906-18.077727-10.698666-37.600363-18.690688-58.043974-23.76424-12.666484-3.13541-20.382213-15.924691-17.216103-28.590152 3.105734-12.666484 16.109909-20.382213 28.591175-17.217127 24.901133 6.149047 48.697095 15.895015 70.708412 28.92989 11.221576 6.640234 14.941294 21.12104 8.30106 32.340569C487.915977 280.757359 480.045729 284.906865 471.96161 284.906865z" p-id="15868" fill="#d81e06"></path><path d="M396.548036 813.501822l-94.565772 0c-19.152199 0-34.738176-14.909571-34.738176-33.262568l0-74.214259c0-13.034874 10.574846-23.609721 23.609721-23.609721s23.610744 10.574846 23.610744 23.609721l0 60.257385 69.602218 0 0-61.241806c0-13.034874 10.574846-23.609721 23.609721-23.609721 13.035898 0 23.610744 10.574846 23.610744 23.609721l0 75.198679C431.288259 798.591227 415.701259 813.501822 396.548036 813.501822z" p-id="15869" fill="#d81e06"></path><path d="M290.853809 258.592546c-13.034874 0-23.609721-10.57587-23.609721-23.611767l0-74.704422c0-18.599613 15.585977-33.756825 34.738176-33.756825l94.565772 0c19.153222 0 34.739199 15.157211 34.739199 33.756825l-0.061398 74.704422c0 13.035898-10.57587 23.580045-23.610744 23.580045 0 0 0 0-0.030699 0-13.034874 0-23.580045-10.574846-23.580045-23.641443l0.061398-61.178361-69.602218 0 0 61.239759C314.464553 248.016677 303.889707 258.592546 290.853809 258.592546z" p-id="15870" fill="#d81e06"></path><path d="M533.69358 756.780982c-8.453533 0-16.724917-3.104711-22.99676-9.376555l-53.184293-53.153594c-9.224082-9.224082-9.224082-24.163329 0-33.387411 9.19236-9.191336 24.13263-9.253758 33.386388 0l43.256176 43.224454 49.188282-49.220005-42.211381-42.240033c-9.221012-9.222035-9.221012-24.163329 0-33.387411 9.255805-9.253758 24.197098-9.191336 33.388435 0l52.139497 52.17122c6.118348 6.118348 9.468652 14.325263 9.438976 23.14821-0.030699 9.224082-3.936659 18.355043-10.66899 24.995277l-66.711378 66.773799C551.707862 753.276159 542.608623 756.780982 533.69358 756.780982z" p-id="15871" fill="#d81e06"></path><path d="M141.812331 368.743272c-6.025227 0-12.082176-2.306532-16.693194-6.91755l-52.877301-52.816926c-13.097296-13.18837-12.789281-34.892695 0.615007-48.38908l66.959018-66.927295c6.456039-6.578836 15.554254-10.390651 24.810059-10.390651l0 0c9.03784 0 17.460674 3.504824 23.701818 9.837042l52.756551 52.694129c9.223059 9.191336 9.223059 24.163329 0 33.385365-9.223059 9.19236-24.164353 9.253758-33.387411 0l-43.347251-43.284829-49.221028 49.188282 43.378973 43.316551c9.224082 9.19236 9.224082 24.165376 0 33.387411C153.894508 366.43674 147.868257 368.743272 141.812331 368.743272z" p-id="15872" fill="#d81e06"></path><path d="M556.718993 368.743272c-6.054903 0-12.081153-2.306532-16.693194-6.91755-9.222035-9.222035-9.222035-24.195052 0-33.387411l43.347251-43.285852-49.218982-49.249681-43.378973 43.315528c-9.253758 9.253758-24.194028 9.19236-33.386388 0-9.223059-9.223059-9.223059-24.195052 0-33.385365l52.877301-52.815903c13.127995-13.157671 34.892695-12.882402 48.451502 0.675382l66.835198 66.865897c13.434987 13.34289 13.864776 35.017538 0.920976 48.266283l-53.060473 53.001121C568.801169 366.43674 562.745243 368.743272 556.718993 368.743272z" p-id="15873" fill="#d81e06"></path><path d="M164.654572 756.719584c-9.223059 0-18.291598-3.812839-24.901133-10.453073l-66.835198-66.835198c-6.640234-6.640234-10.42135-15.771195-10.391674-25.055652 0.061398-8.975419 3.566222-17.336854 9.899464-23.5166l52.815903-52.079122c9.223059-9.101285 24.224728-9.101285 33.386388 0.24457 9.16166 9.28548 9.038864 24.225751-0.245593 33.387411l-43.163055 42.549072 49.126884 49.126884 41.195238-41.133839c9.222035-9.253758 24.163329-9.191336 33.386388 0 9.223059 9.223059 9.223059 24.194028 0 33.387411l-50.725288 50.66389c-6.087649 6.209422-14.480806 9.683547-23.487947 9.715269C164.684248 756.719584 164.654572 756.719584 164.654572 756.719584z" p-id="15874" fill="#d81e06"></path><path d="M659.03017 552.003086l-72.305793 0c-13.033851 0-23.609721-10.57587-23.609721-23.610744s10.57587-23.610744 23.609721-23.610744l58.779731 0 0-69.571519-61.178361 0c-13.034874 0-23.609721-10.574846-23.609721-23.610744 0-13.034874 10.574846-23.609721 23.609721-23.609721L659.03017 387.989615c18.569938 0 33.694403 15.555278 33.694403 34.7085l0 94.596472C692.724573 536.446785 677.60113 552.003086 659.03017 552.003086z" p-id="15875" fill="#d81e06"></path><path d="M224.388025 262.526135" p-id="15876" fill="#d81e06"></path><path d="M703.485661 694.188412c-1.474584 0-2.980891-0.185218-4.487198-0.553609-10.146081-2.489704-16.325827-12.697183-13.865799-22.841218 3.812839-15.587 9.06854-28.191062 17.031908-40.950667 5.535063-8.822946 17.122983-11.496845 26.040073-5.994528 8.821923 5.53404 11.528568 17.186428 5.993504 26.040073-5.811356 9.283434-9.499351 18.2302-12.358469 29.880541C719.718367 688.407756 712.001615 694.188412 703.485661 694.188412z" p-id="15877" fill="#d81e06"></path><path d="M718.211037 792.135188c-6.456039 0-12.757558-3.288906-16.293081-9.253758-7.099698-12.019755-13.126972-26.591635-16.569374-40.119743-0.093121-0.367367-0.215918-0.737804-0.277316-1.106194-2.27481-10.083659 3.967358-20.319791 14.019295-22.717398 8.945743-2.153036 17.923208 2.613524 21.581528 10.666944 0.490164 1.076518 0.892323 2.213411 1.168616 3.381004 2.52245 10.17678 7.223518 21.582551 12.604062 30.653137 5.319146 8.975419 2.337231 20.565385-6.640234 25.88453C724.791919 791.305287 721.470267 792.135188 718.211037 792.135188z" p-id="15878" fill="#d81e06"></path><path d="M701.825858 756.319471l-38.120203 0c-13.405311 0-24.287149-11.097756-24.287149-24.77936L639.418506 681.153538c0-13.650905 10.882861-24.747637 24.287149-24.747637L701.395046 656.405901c10.42442 0 18.876929 8.454556 18.876929 18.874883 0 10.422374-8.453533 18.876929-18.876929 18.876929l-24.223704 0 0 24.409946 24.654516 0c10.42442 0 18.875906 8.454556 18.875906 18.874883C720.701764 747.865939 712.249255 756.319471 701.825858 756.319471z" p-id="15879" fill="#d81e06"></path><path d="M718.182384 639.865179" p-id="15880" fill="#d81e06"></path><path d="M718.182384 639.865179" p-id="15881" fill="#d81e06"></path><path d="M718.182384 639.865179" p-id="15882" fill="#d81e06"></path><path d="M828.672848 783.774777c-42.702568 0-77.411067-34.709523-77.411067-77.410044 0-42.703591 34.7085-77.412091 77.411067-77.412091 42.700521 0 77.410044 34.7085 77.410044 77.412091C906.082892 749.065254 871.372346 783.774777 828.672848 783.774777zM828.672848 666.705478c-21.858844 0-39.660278 17.800411-39.660278 39.659255 0 21.856797 17.801435 39.656185 39.660278 39.656185 21.855774 0 39.658232-17.799388 39.658232-39.656185C868.330056 684.504866 850.528622 666.705478 828.672848 666.705478z" p-id="15883" fill="#d81e06"></path><path d="M762.175341 614.718453c-6.333242 0-12.514012-3.167133-16.07921-8.945743-5.502317-8.853645-2.768043-20.506033 6.117324-25.978674 12.636808-7.839549 25.610284-13.219069 40.85857-16.940834 10.236132-2.457981 20.351514 3.78214 22.841218 13.866822 2.460028 10.144034-3.750417 20.352537-13.864776 22.840194-11.43647 2.797719-20.690228 6.580882-29.974685 12.329816C768.99977 613.827153 765.557368 614.718453 762.175341 614.718453z" p-id="15884" fill="#d81e06"></path><path d="M797.559223 850.978365c-1.567705 0-3.195785-0.216941-4.825912-0.64673-14.295588-3.749394-28.314883-9.775644-40.580231-17.399275-8.855692-5.533017-11.559267-17.156752-6.056949-26.041096 5.531993-8.820899 17.122983-11.618619 26.038026-6.054903 8.946766 5.594415 19.706831 10.175757 30.252001 12.972453 10.083659 2.644223 16.108886 13.005198 13.433964 23.088858C813.578058 845.352227 805.95238 850.978365 797.559223 850.978365z" p-id="15885" fill="#d81e06"></path><path d="M859.722004 850.424756c-8.516977 0-16.232706-5.810333-18.35402-14.418384-2.460028-10.145058 3.750417-20.351514 13.865799-22.842241 11.405771-2.76702 20.689205-6.579859 30.095435-12.358469 8.947789-5.411243 20.568455-2.614547 25.979698 6.241145 5.438872 8.887414 2.6432 20.535709-6.241145 25.977651-12.727882 7.779174-25.701358 13.127995-40.85857 16.84669C862.703919 850.239538 861.197612 850.424756 859.722004 850.424756z" p-id="15886" fill="#d81e06"></path><path d="M939.683151 792.352129c-3.318582 0-6.700609-0.862647-9.744945-2.706645-8.944719-5.411243-11.774161-17.031908-6.392594-25.946952 5.010107-8.269337 8.821923-18.075681 11.988032-30.80561 2.491751-10.083659 12.452613-16.506952 22.873963-13.770632 10.116405 2.490727 16.294105 12.726859 13.772678 22.871917-4.088108 16.540721-9.253758 29.638017-16.293081 41.256636C952.319959 789.121552 946.078815 792.352129 939.683151 792.352129z" p-id="15887" fill="#d81e06"></path><path d="M953.856965 694.188412c-8.484232 0-16.170285-5.747911-18.323321-14.326287-2.918469-11.711739-6.640234-20.719904-12.419867-30.037107-5.502317-8.884344-2.765997-20.534685 6.086625-26.007327 8.946766-5.565762 20.535709-2.736321 26.010397 6.086625 7.869225 12.697183 13.095249 25.270547 16.968463 40.795125 2.521426 10.146081-3.626597 20.383236-13.740956 22.904663C956.900278 694.003194 955.364295 694.188412 953.856965 694.188412z" p-id="15888" fill="#d81e06"></path><path d="M893.999692 614.072747c-3.25923 0-6.547113-0.829901-9.56075-2.614547-9.100262-5.379521-18.938328-9.375531-29.237905-11.897981-10.112312-2.520403-16.322757-12.726859-13.833053-22.871917 2.489704-10.114358 12.727882-16.294105 22.873963-13.836123 13.864776 3.413749 27.114544 8.823969 39.378869 16.07921 8.977465 5.288446 11.990079 16.878412 6.67298 25.855878C906.789996 610.752118 900.48643 614.072747 893.999692 614.072747z" p-id="15889" fill="#d81e06"></path><path d="M853.820598 895.616004l-50.357921 0c-13.680581 0-24.77936-10.760065-24.77936-24.009833L778.683317 832.070736c0-10.423397 8.456602-18.875906 18.875906-18.875906 10.423397 0 18.875906 8.453533 18.875906 18.875906l0 25.792433 24.409946 0L840.845075 831.518151c0-10.422374 8.456602-18.876929 18.876929-18.876929 10.422374 0 18.875906 8.455579 18.875906 18.876929l0 40.08802C878.598934 884.85594 867.500155 895.616004 853.820598 895.616004z" p-id="15890" fill="#d81e06"></path><path d="M859.722004 600.084151c-10.42135 0-18.876929-8.454556-18.876929-18.875906l0-26.376741-24.409946 0 0 26.376741c0 10.422374-8.453533 18.875906-18.875906 18.875906-10.420327 0-18.875906-8.454556-18.875906-18.875906l0-39.842427c0-13.405311 11.098779-24.287149 24.77936-24.287149l50.357921 0c13.679557 0 24.778336 10.882861 24.778336 24.287149l0 39.842427C878.598934 591.629595 870.144378 600.084151 859.722004 600.084151z" p-id="15891" fill="#d81e06"></path><path d="M926.895917 865.456101c-0.031722 0-0.031722 0-0.031722 0-6.39464 0-12.356422-2.488681-16.785292-6.975878l-28.221762-28.193109c-7.379061-7.378038-7.379061-19.336394-0.029676-26.714432 7.378038-7.378038 19.336394-7.408737 26.715455-0.029676l18.597567 18.566868 17.278525-17.276479-18.046005-17.983583c-7.378038-7.348362-7.407714-19.307741-0.029676-26.716478 7.347339-7.347339 19.306718-7.440459 26.715455-0.028653l27.853371 27.761274c9.284457 9.405207 8.975419 24.806989-0.522909 34.461883l-35.754319 35.69292C939.990143 862.690104 933.505451 865.456101 926.895917 865.456101z" p-id="15892" fill="#d81e06"></path><path d="M718.182384 658.741086c-4.827959 0-9.654894-1.843998-13.343913-5.53404l-28.161387-28.160363c-9.497305-9.591449-9.344832-24.716938 0.185218-34.524305l35.785018-35.753295c4.459568-4.489244 10.392698-7.100722 16.633842-7.378038 6.609535-0.030699 13.310144 2.275833 18.046005 7.010671l28.160363 28.067242c7.378038 7.379061 7.407714 19.337417 0.029676 26.715455-7.378038 7.379061-19.337417 7.408737-26.714432 0.029676l-18.631336-18.567891-17.245779 17.246803 18.59859 18.630313c7.379061 7.347339 7.379061 19.336394 0 26.683732C727.836255 656.898111 723.008296 658.741086 718.182384 658.741086z" p-id="15893" fill="#d81e06"></path><path d="M939.161265 658.741086c-4.826935 0-9.652847-1.843998-13.34289-5.53404-7.378038-7.347339-7.378038-19.336394 0-26.683732l18.599613-18.630313-17.308201-17.277502-18.628266 18.59859c-7.379061 7.379061-19.338441 7.349385-26.717502-0.029676-7.378038-7.378038-7.347339-19.336394 0.031722-26.715455l28.161387-28.098965c4.550643-4.548596 10.604522-7.040347 17.183358-7.009647 6.610558 0.062422 13.036921 2.828418 17.678638 7.563256l35.477003 35.415604c9.715269 9.991562 9.868765 25.117051 0.49221 34.616402l-28.284183 28.251438C948.814112 656.898111 943.987177 658.741086 939.161265 658.741086z" p-id="15894" fill="#d81e06"></path><path d="M730.354612 865.365027c-6.332219 0-12.727882-2.428306-17.645892-7.28594l-35.663244-35.69292c-9.590426-9.715269-9.775644-25.208125-0.490164-34.616402l28.375258-27.977191c7.379061-7.315616 19.337417-7.223518 26.716478 0.215918 7.316639 7.40976 7.225565 19.368116-0.214894 26.715455l-18.446118 18.200524 17.184381 17.183358 17.432021-17.429974c7.379061-7.378038 19.336394-7.408737 26.716478-0.029676 7.377014 7.378038 7.377014 19.336394 0.028653 26.714432l-26.991748 27.02347C742.715127 863.027795 736.56608 865.365027 730.354612 865.365027z" p-id="15895" fill="#d81e06"></path><path d="M993.639017 756.319471l-38.490639 0c-10.420327 0-18.874883-8.453533-18.874883-18.875906 0-10.42135 8.455579-18.874883 18.874883-18.874883l25.024953 0 0-24.409946-26.316366 0c-10.422374 0-18.87386-8.455579-18.87386-18.876929 0-10.42135 8.452509-18.874883 18.87386-18.874883l39.782052 0c13.404288 0 24.286126 11.096732 24.286126 24.747637l0 50.386574C1017.925143 745.221716 1007.042281 756.319471 993.639017 756.319471z" p-id="15896" fill="#d81e06"></path><path d="M762.142595 595.841523" p-id="15897" fill="#d81e06"></path></svg>